<svg width="1180" height="940" viewBox="0 0 1180 940" xmlns="http://www.w3.org/2000/svg" role="img" aria-labelledby="title desc">
  <title id="title">DevOps Skills routing flow</title>
  <desc id="desc">A four-block routing diagram showing request classification, safety gates, domain workflow execution, validation, and project memory synchronization.</desc>
  <defs>
    <filter id="softShadow" x="-12%" y="-18%" width="124%" height="140%">
      <feDropShadow dx="0" dy="10" stdDeviation="10" flood-color="#17201D" flood-opacity="0.10"/>
    </filter>
    <marker id="arrow" viewBox="0 0 10 10" refX="8.5" refY="5" markerWidth="8" markerHeight="8" orient="auto">
      <path d="M 0 0 L 10 5 L 0 10 z" fill="#38524C"/>
    </marker>
    <style>
      .bg { fill: #FBFAF7; }
      .shell { fill: #FFFFFF; stroke: #E9E1D5; stroke-width: 1.4; }
      .title { font: 700 38px -apple-system, BlinkMacSystemFont, "Segoe UI", sans-serif; fill: #17201D; }
      .subtitle { font: 400 18px -apple-system, BlinkMacSystemFont, "Segoe UI", sans-serif; fill: #5F6F69; }
      .phase { fill: #FFFFFF; stroke: #E6DFD3; stroke-width: 1.3; filter: url(#softShadow); }
      .phaseTitle { font: 800 16px -apple-system, BlinkMacSystemFont, "Segoe UI", sans-serif; fill: #425650; letter-spacing: .03em; }
      .phaseSub { font: 400 13px -apple-system, BlinkMacSystemFont, "Segoe UI", sans-serif; fill: #6D7B76; }
      .num { fill: #1F4F46; }
      .numText { font: 800 15px -apple-system, BlinkMacSystemFont, "Segoe UI", sans-serif; fill: #FFFFFF; }
      .node { stroke-width: 1.2; }
      .entry { fill: #1F4F46; stroke: #1B443D; }
      .plan { fill: #F4F0E8; stroke: #DCCFBC; }
      .build { fill: #E8F1FF; stroke: #B8CCE8; }
      .verify { fill: #EEF8EC; stroke: #B8D9B0; }
      .memory { fill: #F8E9F1; stroke: #DCB4C6; }
      .chip { fill: #F7F9F8; stroke: #D9E1DE; stroke-width: 1; }
      .nodeTitle { font: 800 15px -apple-system, BlinkMacSystemFont, "Segoe UI", sans-serif; fill: #18211F; }
      .nodeText { font: 400 12.5px -apple-system, BlinkMacSystemFont, "Segoe UI", sans-serif; fill: #52615C; }
      .entryText { fill: #FFFFFF; }
      .line { fill: none; stroke: #38524C; stroke-width: 2.4; marker-end: url(#arrow); }
      .thinLine { fill: none; stroke: #6F827C; stroke-width: 1.8; marker-end: url(#arrow); }
      .phaseLine { fill: none; stroke: #38524C; stroke-width: 2.6; marker-end: url(#arrow); }
      .caption { font: 600 12.5px -apple-system, BlinkMacSystemFont, "Segoe UI", sans-serif; fill: #61716C; }
    </style>
  </defs>

  <rect class="bg" width="1180" height="940" rx="30"/>

  <text x="70" y="70" class="title">DevOps Skills Routing</text>
  <text x="70" y="103" class="subtitle">A clean four-block path: classify, check docs, execute, and record project memory.</text>

  <rect x="48" y="132" width="1084" height="760" rx="26" class="shell"/>

  <!-- 1. Entry -->
  <rect x="82" y="158" width="1016" height="150" rx="20" class="phase"/>
  <circle cx="118" cy="198" r="18" class="num"/>
  <text x="113" y="204" class="numText">1</text>
  <text x="148" y="194" class="phaseTitle">CLASSIFY THE REQUEST</text>
  <text x="148" y="218" class="phaseSub">The router chooses the correct DevOps route before risky write-heavy work starts.</text>

  <rect x="150" y="242" width="170" height="46" rx="14" class="node entry"/>
  <text x="172" y="271" class="nodeTitle entryText">User request</text>

  <rect x="430" y="233" width="210" height="64" rx="14" class="node entry"/>
  <text x="452" y="258" class="nodeTitle entryText">devops-router</text>
  <text x="452" y="277" class="nodeText entryText">classify, gate, route</text>

  <rect x="750" y="233" width="210" height="64" rx="14" class="node entry"/>
  <text x="772" y="258" class="nodeTitle entryText">Skill route</text>
  <text x="772" y="277" class="nodeText entryText">domain and safety</text>

  <path class="line" d="M320 265 H430"/>
  <path class="line" d="M640 265 H750"/>

  <!-- 2. Safety gates -->
  <rect x="82" y="344" width="1016" height="238" rx="20" class="phase"/>
  <circle cx="118" cy="384" r="18" class="num"/>
  <text x="113" y="390" class="numText">2</text>
  <text x="148" y="380" class="phaseTitle">SELECT SAFETY GATES</text>
  <text x="148" y="404" class="phaseSub">Docs, risk, secrets, blast radius, validation, and rollback become explicit.</text>

  <rect x="150" y="438" width="170" height="56" rx="14" class="node plan"/>
  <text x="170" y="462" class="nodeTitle">context</text>
  <text x="170" y="481" class="nodeText">versions, inputs</text>

  <rect x="390" y="438" width="170" height="56" rx="14" class="node plan"/>
  <text x="410" y="462" class="nodeTitle">current docs</text>
  <text x="410" y="481" class="nodeText">syntax, limits</text>

  <rect x="630" y="438" width="170" height="56" rx="14" class="node plan"/>
  <text x="650" y="462" class="nodeTitle">risk model</text>
  <text x="650" y="481" class="nodeText">security, blast</text>

  <rect x="870" y="438" width="170" height="56" rx="14" class="node plan"/>
  <text x="890" y="462" class="nodeTitle">rollback</text>
  <text x="890" y="481" class="nodeText">plan before apply</text>

  <path class="line" d="M320 466 H390"/>
  <path class="line" d="M560 466 H630"/>
  <path class="line" d="M800 466 H870"/>

  <rect x="124" y="526" width="292" height="30" rx="15" class="chip"/>
  <text x="145" y="546" class="caption">Least privilege by default</text>

  <rect x="430" y="526" width="282" height="30" rx="15" class="chip"/>
  <text x="451" y="546" class="caption">No secrets in code or logs</text>

  <rect x="728" y="526" width="348" height="30" rx="15" class="chip"/>
  <text x="749" y="546" class="caption">Idempotent and reproducible changes</text>

  <!-- 3. Execute and verify -->
  <rect x="82" y="622" width="1016" height="134" rx="20" class="phase"/>
  <circle cx="118" cy="662" r="18" class="num"/>
  <text x="113" y="668" class="numText">3</text>
  <text x="148" y="658" class="phaseTitle">EXECUTE AND VALIDATE</text>
  <text x="148" y="682" class="phaseSub">The selected domain skill owns configs, commands, checks, and the handoff.</text>

  <rect x="222" y="704" width="210" height="50" rx="14" class="node build"/>
  <text x="246" y="727" class="nodeTitle">domain workflow</text>
  <text x="246" y="745" class="nodeText">K8s, cloud, IaC, CI/CD</text>

  <rect x="518" y="704" width="170" height="50" rx="14" class="node build"/>
  <text x="543" y="727" class="nodeTitle">implementation</text>
  <text x="543" y="745" class="nodeText">scoped change</text>

  <rect x="774" y="704" width="170" height="50" rx="14" class="node verify"/>
  <text x="799" y="727" class="nodeTitle">validation</text>
  <text x="799" y="745" class="nodeText">tests, dry-run, smoke</text>

  <path class="line" d="M432 729 H518"/>
  <path class="line" d="M688 729 H774"/>

  <!-- 4. Memory -->
  <rect x="82" y="796" width="1016" height="78" rx="20" class="phase"/>
  <circle cx="118" cy="836" r="18" class="num"/>
  <text x="113" y="842" class="numText">4</text>
  <text x="148" y="828" class="phaseTitle">SYNC PROJECT MEMORY</text>
  <text x="148" y="851" class="phaseSub">Runbooks, validation notes, and routing links become reusable context.</text>

  <rect x="610" y="816" width="248" height="42" rx="14" class="node memory"/>
  <text x="633" y="842" class="nodeTitle">runbook notes</text>

  <rect x="900" y="816" width="170" height="42" rx="14" class="node memory"/>
  <text x="923" y="842" class="nodeTitle">project graph</text>

  <path class="thinLine" d="M858 837 H900"/>

  <!-- Phase handoffs -->
  <path class="phaseLine" d="M590 308 V344"/>
  <path class="phaseLine" d="M590 582 V622"/>
  <path class="phaseLine" d="M590 756 V796"/>
</svg>
